<svg version="1" xmlns="http://www.w3.org/2000/svg" width="170.667" height="170.667" viewBox="0 0 128.000000 128.000000"><path d="M18.2 3.6c-1.5 1.1-1.7 3.3-1.8 16.6 0 8.5-.4 16.6-.8 18.1-.7 2.8-.9 2.9-9.3 3.1-2.4 0-4.3.3-4.3.6 0 1 38.5 38.6 39.6 38.6.6-.1 5.1-4.2 10-9.1l9.1-9.1-5.8-5.8c-3.2-3.2-6.4-7.1-7.1-8.7-.7-1.6-1.7-2.9-2.1-2.9-.5 0-.5-.5-.2-1 .3-.6.2-1-.3-1-.8 0-2-2.8-2.6-6-.1-.3-.5-1-.9-1.7-.7-1.2-1.7-6-2-10.1-.1-1.2-.5-2.2-.9-2.2-.3 0-.4-.9-.1-2 .3-1.2 0-2-.7-2-.9 0-1-.3-.1-1.3.6-.8.8-1.7.4-2-.3-.4-.8-2.8-1-5.4-.2-2.6-1-5.4-1.7-6.2-1.9-1.9-15-2.3-17.4-.5z"/><path d="M48.1 3c-2.1 1.4-2.9 5.4-2.9 15-.1 18.5 3.8 30.6 12.2 38.9l4.4 4.3 9.1-9c4.9-4.9 9.3-8.7 9.6-8.4.3.4.3 0 0-.9-.4-1.1-2-1.5-6-1.4-3.7 0-5.9-.4-6.8-1.5-.9-1.1-1.3-5.9-1.2-18.4 0-15.8-.1-16.9-2-17.9-2-1.2-14.9-1.7-16.4-.7zM74.6 56.2l-8.9 9 4.4 4.5c2.4 2.5 5.1 5.4 6 6.3 4.4 4.7 10.1 18.3 11.3 27 1.2 8.7 1.7 12.7 2 15.8.2 1.9 1 4 1.7 4.7 1.5 1.5 12.8 2.3 14.7 1.1.7-.4 1.2-.4 1.2-.1 0 .4.8-.1 1.7-1.1 1.4-1.4 1.7-3.8 1.8-13.8 0-6.6-.4-12.7-.8-13.4-.6-.7-.5-1.2.2-1.2s.9-.9.5-2.4c-1-4.1 2.5-6.6 9.1-6.3 3 .1 5.5.1 5.5-.1s-2.7-3.1-6-6.4c-3.3-3.3-6-6.3-6-6.8 0-.4-.9-1-2.1-1.3-1.2-.3-1.8-1-1.5-1.5.3-.5-.6-1.5-1.9-2.2-1.4-.7-2.7-2.1-3.1-3.2-.3-1-.9-1.8-1.4-1.8-1.2 0-12-11.1-12-12.2 0-.5-.4-.7-.9-.3-.6.3-1.5-.4-2.1-1.5-.6-1.1-1.8-2-2.8-1.9-.9 0-5.7 4.1-10.6 9.1z"/><path d="M54.3 76.6c-6 6.2-8.6 9.4-7.5 9.5.9.1 3.8.2 6.4.3 2.6.1 5.2.6 5.9 1.3.7.7 1.1 7.1 1.2 18.1.1 9.4.6 17.4 1 17.9.5.4 3.9 1 7.5 1.3 7.2.6 12-1 12.1-3.9.7-16.2.2-27-1.3-29-.9-1.2-.8-1.3.4-.6 1.2.6 1.3.5.3-.6-.7-.7-1.3-2.3-1.3-3.4 0-1.2-.3-2.5-.7-2.9-.5-.4-.8-1.1-.8-1.4-.1-1.5-3.6-6.9-6.3-9.9-1.6-1.7-2.7-3.4-2.4-3.7.3-.3-.2-.6-1.1-.6-.9 0-1.7-.5-1.7-1 0-2.5-3.2-.2-11.7 8.6z"/></svg>